<svg xmlns="http://www.w3.org/2000/svg" viewBox="0 0 100 100">
  <rect fill="#5D3BAE" width="100%" height="100%"/>
  <defs>
    <filter id="filter-681">
      <feTurbulence type="fractalNoise" baseFrequency=".0010" seed="252.53761492677597"/>
      <feDisplacementMap in="SourceGraphic" scale="10"/>
    </filter>
    <mask id="mask-682">
      <rect width="100%" height="100%" fill="#fff"/>
    </mask>
  </defs>
  <g fill="none" filter="url(#filter-681)" mask="url(#mask-682)">
    <path stroke="blanchedalmond" stroke-width="0.018591469832172507" stroke-dasharray="23.593072527193456 0.14301426561200598" d="M 40 40 Q 30 80 135 60"/>
    <path stroke="#58C28F" stroke-width="0.04459562591691906" stroke-dasharray="16.84697988113227 4.072037194918803" d="M 40 40 Q 29.990131207314633 79.37178481843743 134.93832004571647 56.07365511523396"/>
    <path stroke="#58C28F" stroke-width="0.08807337876430417" stroke-dasharray="48.14001184204499 2.4078569325201595" d="M 40 40 Q 29.960534568565432 78.74418960941374 134.75334105353394 52.15118505883583"/>
    <path stroke="#58C28F" stroke-width="0.018200585057492873" stroke-dasharray="52.50688544358848 0.8280313682958608" d="M 40 40 Q 29.9112392920616 78.11783373362971 134.445245575385 48.23646083518571"/>
    <path stroke="blanchedalmond" stroke-width="0.06141973515034979" stroke-dasharray="27.329347267351828 3.235021112985498" d="M 40 40 Q 29.842294026289558 77.49333532871391 134.01433766430972 44.33334580446197"/>
    <path stroke="blanchedalmond" stroke-width="0.0342087511518285" stroke-dasharray="18.29247548795609 4.502048371643857" d="M 40 40 Q 29.753766811902757 76.87131069919538 133.46104257439222 40.44569186997114"/>
    <path stroke="blanchedalmond" stroke-width="0.014134231526642466" stroke-dasharray="38.065385893752534 1.0866857022238376" d="M 40 40 Q 29.645745014573773 76.2523737082855 132.7859063410861 36.57733567678442"/>
    <path stroke="#58C28F" stroke-width="0.014420802829317507" stroke-dasharray="34.02964038860639 1.524042153412851" d="M 40 40 Q 29.51833523877495 75.63713517206915 131.98959524234343 32.73209482543218"/>
    <path stroke="#58C28F" stroke-width="0.08442363277560787" stroke-dasharray="57.47266552322969 4.462086541648474" d="M 40 40 Q 29.37166322257262 75.0262022567029 131.0728951410789 28.913764104393152"/>
    <path stroke="blanchedalmond" stroke-width="0.09031750152100719" stroke-dasharray="42.42578253085356 2.452087988745864" d="M 40 40 Q 29.20587371353886 74.42017787921542 130.03671070961786 25.12611174509634"/>
    <path stroke="blanchedalmond" stroke-width="0.025451033324589985" stroke-dasharray="17.836541347814777 0.35643393992519534" d="M 40 40 Q 29.02113032590307 73.81966011250105 128.88206453689418 21.372875703131577"/>
    <path stroke="blanchedalmond" stroke-width="0.004883994168242641" stroke-dasharray="5.269960935517851 2.923346568734135" d="M 40 40 Q 28.817615379084508 73.22524159509418 127.61009611927818 17.65775996933857"/>
    <path stroke="blanchedalmond" stroke-width="0.019311597172141363" stroke-dasharray="10.058837122147242 0.4452660428185088" d="M 40 40 Q 28.595529717765025 72.63750894630644 126.22206073603142 13.984430914415256"/>
    <path stroke="#58C28F" stroke-width="0.08704160911587853" stroke-dasharray="40.30854509901212 3.6012425367976038" d="M 40 40 Q 28.355092513679622 72.05704218730439 124.71932821049764 10.356513670652426"/>
    <path stroke="blanchedalmond" stroke-width="0.03533913111263577" stroke-dasharray="26.219556347943794 0.02790266996363862" d="M 40 40 Q 28.09654104932039 71.48441416869855 123.10338155825244 6.777588554365913"/>
    <path stroke="#58C28F" stroke-width="0.04818450423894647" stroke-dasharray="37.491357808764484 3.020772137546733" d="M 40 40 Q 27.820130483767358 70.92019000520907 121.37581552354598 3.2511875325566493"/>
    <path stroke="blanchedalmond" stroke-width="0.06688203321461698" stroke-dasharray="41.53891085669161 0.3175567074983099" d="M 40 40 Q 27.526133600877273 70.3649265179657 119.53833500548295 -0.21920926271441488"/>
    <path stroke="#58C28F" stroke-width="0.08127187428487459" stroke-dasharray="47.44323689971564 1.3913207562702663" d="M 40 40 Q 27.214840540078875 69.81917168499257 117.59275337549296 -3.6301769687964125"/>
    <path stroke="blanchedalmond" stroke-width="0.008227559074073567" stroke-dasharray="32.116580384682976 1.5464927485233644" d="M 40 40 Q 26.886558510040302 69.28346410042006 115.54099068775189 -6.978349372374581"/>
    <path stroke="#58C28F" stroke-width="0.09501896274228154" stroke-dasharray="55.8117924075642 0.7199338280209422" d="M 40 40 Q 26.541611485491238 68.7583324429574 113.38507178432023 -10.26042223151633"/>
    <path stroke="blanchedalmond" stroke-width="0.09319439041996846" stroke-dasharray="57.31744523437848 4.464519937283019" d="M 40 40 Q 26.18033988749895 68.24429495415053 111.12712429686843 -13.473156536559145"/>
    <path stroke="blanchedalmond" stroke-width="0.044096357045864364" stroke-dasharray="10.201918122981642 4.108512938314946" d="M 40 40 Q 25.803100247513804 67.74185892694047 108.76937654696128 -16.613381706622064"/>
    <path stroke="blanchedalmond" stroke-width="0.06749331251161683" stroke-dasharray="10.387848324730717 2.9234498720935065" d="M 40 40 Q 25.410264855515784 67.25152020502621 106.31415534697365 -19.677998718586224"/>
    <path stroke="#58C28F" stroke-width="0.09480436689412446" stroke-dasharray="46.243468764785554 2.2664203620467487" d="M 40 40 Q 25.002221392609194 66.77376269352696 103.76388370380745 -22.66398316545647"/>
    <path stroke="#58C28F" stroke-width="0.013468044853406025" stroke-dasharray="54.175061103176795 0.4997332590241299" d="M 40 40 Q 24.579372548428232 66.30905788142623 101.12107842767644 -25.568388241086097"/>
    <path stroke="blanchedalmond" stroke-width="0.06493349284744931" stroke-dasharray="17.30260878720543 1.868871176054485" d="M 40 40 Q 24.14213562373095 65.85786437626905 98.38834764831843 -28.388347648318444"/>
    <path stroke="#58C28F" stroke-width="0.0722486655434992" stroke-dasharray="56.69769609791866 2.831166076086442" d="M 40 40 Q 23.690942118573773 65.42062745157176 95.56838824108608 -31.121078427676437"/>
    <path stroke="#58C28F" stroke-width="0.011157584195360386" stroke-dasharray="46.66606192460859 4.908670301167723" d="M 40 40 Q 23.22623730647304 64.99777860739081 92.66398316545647 -33.76388370380745"/>
    <path stroke="#58C28F" stroke-width="0.011180511206831396" stroke-dasharray="43.34807674481546 1.8874365401229114" d="M 40 40 Q 22.748479794973793 64.58973514448422 89.67799871858621 -36.31415534697366"/>
    <path stroke="blanchedalmond" stroke-width="0.06269809582963899" stroke-dasharray="22.12339299337584 3.7403133564741715" d="M 40 40 Q 22.25814107305953 64.19689975248619 86.61338170662206 -38.7693765469613"/>
    <path stroke="#58C28F" stroke-width="0.06871634998282725" stroke-dasharray="32.45338780382595 3.3104162974377727" d="M 40 40 Q 21.75570504584946 63.819660112501055 83.47315653655913 -41.12712429686843"/>
    <path stroke="#58C28F" stroke-width="0.022408617768100214" stroke-dasharray="33.70136234179123 3.680301497258762" d="M 40 40 Q 21.24166755704261 63.45838851450876 80.26042223151633 -43.38507178432023"/>
    <path stroke="#58C28F" stroke-width="0.008190416037139932" stroke-dasharray="8.630979579765825 3.5340301174714925" d="M 40 40 Q 20.71653589957993 63.1134414899597 76.97834937237457 -45.540990687751886"/>
    <path stroke="#58C28F" stroke-width="0.04390594446878306" stroke-dasharray="44.13778100777757 2.552960907365311" d="M 40 40 Q 20.180828315007425 62.785159459921125 73.6301769687964 -47.59275337549296"/>
    <path stroke="#58C28F" stroke-width="0.08111335599277503" stroke-dasharray="35.63487259493723 3.955046491301657" d="M 40 40 Q 19.6350734820343 62.47386639912273 70.2192092627144 -49.53833500548296"/>
    <path stroke="#58C28F" stroke-width="0.024999996561429136" stroke-dasharray="16.834342141501313 3.2509083445417284" d="M 40 40 Q 19.079809994790935 62.17986951623264 66.74881246744334 -51.37581552354597"/>
    <path stroke="blanchedalmond" stroke-width="0.06444238872743527" stroke-dasharray="54.060250654300425 3.6107693804148804" d="M 40 40 Q 18.515585831301454 61.90345895067961 63.22241144563408 -53.10338155825245"/>
    <path stroke="blanchedalmond" stroke-width="0.06595461110760392" stroke-dasharray="25.43305033972721 0.5491594716724106" d="M 40 40 Q 17.94295781269561 61.64490748632038 59.64348632934757 -54.719328210497636"/>
    <path stroke="#58C28F" stroke-width="0.0023304927352143126" stroke-dasharray="30.911003211148568 3.1378120793650326" d="M 40 40 Q 17.362491053693557 61.40447028223497 56.01556908558473 -56.22206073603144"/>
    <path stroke="blanchedalmond" stroke-width="0.04490205032779797" stroke-dasharray="31.918040722804886 3.567851236339589" d="M 40 40 Q 16.774758404905825 61.182384620915485 52.34224003066141 -57.6100961192782"/>
    <path stroke="#58C28F" stroke-width="0.0948777899911111" stroke-dasharray="15.274149276028064 4.966200046436169" d="M 40 40 Q 16.18033988749895 60.97886967409693 48.62712429686843 -58.88206453689419"/>
    <path stroke="blanchedalmond" stroke-width="0.045795039491234486" stroke-dasharray="22.509405876838848 3.5644500310331857" d="M 40 40 Q 15.579822120784586 60.794126286461136 44.87388825490366 -60.03671070961788"/>
    <path stroke="blanchedalmond" stroke-width="0.09859427939176652" stroke-dasharray="49.190047479750326 0.6667418500745709" d="M 40 40 Q 14.973797743297094 60.62833677742738 41.08623589560685 -61.07289514107889"/>
    <path stroke="#58C28F" stroke-width="0.0021110448951575616" stroke-dasharray="29.268675607417034 0.1941760318786119" d="M 40 40 Q 14.36286482793085 60.48166476122505 37.267905174567815 -61.98959524234343"/>
    <path stroke="blanchedalmond" stroke-width="0.06073596806825835" stroke-dasharray="29.353372789138962 4.637845862417772" d="M 40 40 Q 13.74762629171449 60.35425498542622 33.422664323215564 -62.78590634108609"/>
    <path stroke="blanchedalmond" stroke-width="0.04861104409880662" stroke-dasharray="24.803879472625233 4.924225155366744" d="M 40 40 Q 13.128689300804615 60.24623318809724 29.554308130028836 -63.46104257439222"/>
    <path stroke="#58C28F" stroke-width="0.03661268211276186" stroke-dasharray="7.9887853816528605 1.7503819765357973" d="M 40 40 Q 12.506664671286085 60.15770597371044 25.666654195538033 -64.01433766430974"/>
    <path stroke="blanchedalmond" stroke-width="0.037588725948817944" stroke-dasharray="32.83954509122923 1.274953795973203" d="M 40 40 Q 11.882166266370286 60.0887607079384 21.763539164814283 -64.445245575385"/>
    <path stroke="blanchedalmond" stroke-width="0.07964025178225637" stroke-dasharray="39.530150541204975 2.175271152398568" d="M 40 40 Q 11.255810390586266 60.039465431434564 17.848814941164164 -64.75334105353394"/>
    <path stroke="blanchedalmond" stroke-width="0.07049560061031022" stroke-dasharray="28.344507339920632 2.9005567077433803" d="M 40 40 Q 10.628215181562563 60.00986879268537 13.92634488476602 -64.93832004571645"/>
    <path stroke="blanchedalmond" stroke-width="0.08990233957164022" stroke-dasharray="59.782811209749994 1.0623691475451487" d="M 40 40 Q 9.999999999999996 60 9.99999999999998 -65"/>
    <path stroke="blanchedalmond" stroke-width="0.08811182604377633" stroke-dasharray="13.208992918347091 2.6161573527116277" d="M 40 40 Q 9.371784818437435 60.00986879268537 6.073655115233965 -64.93832004571645"/>
    <path stroke="#58C28F" stroke-width="0.010238636199121211" stroke-dasharray="46.77654295307421 2.4979137205473756" d="M 40 40 Q 8.744189609413732 60.039465431434564 2.151185058835825 -64.75334105353394"/>
    <path stroke="blanchedalmond" stroke-width="0.07385446683161008" stroke-dasharray="46.75069050195197 3.0378159158248854" d="M 40 40 Q 8.117833733629713 60.0887607079384 -1.763539164814297 -64.445245575385"/>
    <path stroke="#58C28F" stroke-width="0.05619063309644158" stroke-dasharray="21.454521776692708 3.9491154681275016" d="M 40 40 Q 7.493335328713913 60.15770597371045 -5.666654195538046 -64.01433766430972"/>
    <path stroke="#58C28F" stroke-width="0.0389674274223932" stroke-dasharray="46.139377158892174 2.1943605949207274" d="M 40 40 Q 6.871310699195379 60.24623318809725 -9.554308130028879 -63.46104257439221"/>
    <path stroke="blanchedalmond" stroke-width="0.021751392603593885" stroke-dasharray="38.273126535410604 2.6059592050285096" d="M 40 40 Q 6.2523737082855035 60.35425498542622 -13.422664323215603 -62.785906341086076"/>
    <path stroke="blanchedalmond" stroke-width="0.024199083598475227" stroke-dasharray="58.28295592879404 3.4104365351502244" d="M 40 40 Q 5.637135172069149 60.48166476122505 -17.267905174567822 -61.98959524234343"/>
    <path stroke="#58C28F" stroke-width="0.022460918464263385" stroke-dasharray="35.27128630262668 2.4403755316141225" d="M 40 40 Q 5.026202256702903 60.62833677742738 -21.086235895606855 -61.07289514107889"/>
    <path stroke="#58C28F" stroke-width="0.03274618944045608" stroke-dasharray="56.52327251341074 4.833352844250857" d="M 40 40 Q 4.420177879215413 60.794126286461136 -24.87388825490367 -60.03671070961788"/>
    <path stroke="#58C28F" stroke-width="0.022346140470726212" stroke-dasharray="28.63984613250372 1.9432875671802736" d="M 40 40 Q 3.819660112501049 60.97886967409693 -28.627124296868445 -58.88206453689419"/>
    <path stroke="#58C28F" stroke-width="0.04376516412973739" stroke-dasharray="34.321389663400886 1.0605586821979391" d="M 40 40 Q 3.225241595094169 61.18238462091549 -32.34224003066144 -57.61009611927818"/>
    <path stroke="#58C28F" stroke-width="0.0646967009160937" stroke-dasharray="49.88096939871408 3.951505728571583" d="M 40 40 Q 2.6375089463064407 61.404470282234975 -36.015569085584744 -56.22206073603142"/>
    <path stroke="blanchedalmond" stroke-width="0.01892917221021155" stroke-dasharray="46.96804929128315 0.5604649087624654" d="M 40 40 Q 2.0570421873043863 61.64490748632038 -39.64348632934758 -54.719328210497636"/>
    <path stroke="#58C28F" stroke-width="0.0671458902575264" stroke-dasharray="36.963665716211665 4.848665836436536" d="M 40 40 Q 1.484414168698546 61.90345895067961 -43.22241144563409 -53.10338155825244"/>
    <path stroke="#58C28F" stroke-width="0.013552308859176188" stroke-dasharray="37.657274448776306 0.01368106746831239" d="M 40 40 Q 0.9201900052090668 62.17986951623264 -46.74881246744334 -51.37581552354598"/>
    <path stroke="#58C28F" stroke-width="0.06414324916120975" stroke-dasharray="26.41637482847736 4.5840536833888486" d="M 40 40 Q 0.3649265179656922 62.47386639912273 -50.21920926271443 -49.538335005482935"/>
    <path stroke="blanchedalmond" stroke-width="0.03972587835482447" stroke-dasharray="40.92191221563734 3.6768524718202293" d="M 40 40 Q -0.18082831500742635 62.785159459921125 -53.63017696879641 -47.59275337549296"/>
    <path stroke="#58C28F" stroke-width="0.0005001571417391279" stroke-dasharray="26.796393114351694 3.3447776528776014" d="M 40 40 Q -0.716535899579938 63.1134414899597 -56.97834937237461 -45.54099068775187"/>
    <path stroke="#58C28F" stroke-width="0.03093336522580887" stroke-dasharray="44.38823209568602 3.103329948615637" d="M 40 40 Q -1.2416675570426143 63.45838851450877 -60.26042223151633 -43.38507178432022"/>
    <path stroke="blanchedalmond" stroke-width="0.035566504625094426" stroke-dasharray="20.52757695861742 0.08508060635526571" d="M 40 40 Q -1.75570504584946 63.819660112501055 -63.47315653655913 -41.12712429686843"/>
    <path stroke="blanchedalmond" stroke-width="0.08783646173237708" stroke-dasharray="58.66739410657433 3.3255001045700054" d="M 40 40 Q -2.258141073059532 64.19689975248619 -66.61338170662208 -38.76937654696128"/>
    <path stroke="#58C28F" stroke-width="0.09881126749196059" stroke-dasharray="58.28387784415016 1.988592573661792" d="M 40 40 Q -2.748479794973795 64.58973514448422 -69.67799871858622 -36.31415534697366"/>
    <path stroke="blanchedalmond" stroke-width="0.0732919567253882" stroke-dasharray="41.4179057485153 4.507650005124785" d="M 40 40 Q -3.226237306473042 64.99777860739081 -72.6639831654565 -33.76388370380742"/>
    <path stroke="blanchedalmond" stroke-width="0.028843859135056146" stroke-dasharray="19.17223631896269 0.16008811662030714" d="M 40 40 Q -3.6909421185737745 65.42062745157178 -75.5683882410861 -31.121078427676437"/>
    <path stroke="#58C28F" stroke-width="0.06090438736869663" stroke-dasharray="50.20855883813091 2.713657544779387" d="M 40 40 Q -4.142135623730949 65.85786437626905 -78.38834764831843 -28.388347648318444"/>
    <path stroke="blanchedalmond" stroke-width="0.061001155590139224" stroke-dasharray="30.550240263563936 4.841543925369905" d="M 40 40 Q -4.579372548428234 66.30905788142623 -81.12107842767645 -25.56838824108607"/>
    <path stroke="#58C28F" stroke-width="0.06287769297848911" stroke-dasharray="22.257840423711222 1.1853246357692269" d="M 40 40 Q -5.002221392609192 66.77376269352696 -83.76388370380745 -22.66398316545647"/>
    <path stroke="#58C28F" stroke-width="0.07273743131381218" stroke-dasharray="10.705101038947612 2.8619928131289156" d="M 40 40 Q -5.410264855515788 67.25152020502621 -86.31415534697366 -19.677998718586196"/>
    <path stroke="blanchedalmond" stroke-width="0.09498219148943715" stroke-dasharray="20.27498881636705 4.1894977181450095" d="M 40 40 Q -5.803100247513807 67.74185892694047 -88.7693765469613 -16.61338170662205"/>
    <path stroke="#58C28F" stroke-width="0.04839599156222705" stroke-dasharray="27.14561564314518 4.585637467737033" d="M 40 40 Q -6.1803398874989455 68.24429495415053 -91.12712429686842 -13.47315653655916"/>
    <path stroke="#58C28F" stroke-width="0.007071496672839488" stroke-dasharray="10.690788903223666 1.871897889021266" d="M 40 40 Q -6.541611485491238 68.7583324429574 -93.38507178432025 -10.260422231516316"/>
    <path stroke="blanchedalmond" stroke-width="0.01136500381407405" stroke-dasharray="38.139151465782376 2.6745174887871315" d="M 40 40 Q -6.886558510040302 69.28346410042006 -95.54099068775189 -6.978349372374581"/>
    <path stroke="blanchedalmond" stroke-width="0.09466615574651772" stroke-dasharray="18.51937319449963 1.6624029614870628" d="M 40 40 Q -7.214840540078875 69.81917168499258 -97.59275337549298 -3.630176968796384"/>
    <path stroke="#58C28F" stroke-width="0.025905907131399387" stroke-dasharray="19.924703613693637 4.279727395633774" d="M 40 40 Q -7.526133600877273 70.3649265179657 -99.53833500548295 -0.21920926271440067"/>
    <path stroke="#58C28F" stroke-width="0.07934145830434601" stroke-dasharray="8.393650081710721 0.18232040095249788" d="M 40 40 Q -7.820130483767361 70.92019000520907 -101.375815523546 3.251187532556692"/>
    <path stroke="blanchedalmond" stroke-width="0.045732484828197854" stroke-dasharray="49.507565043994994 2.167197373580497" d="M 40 40 Q -8.096541049320393 71.48441416869855 -103.10338155825245 6.777588554365941"/>
    <path stroke="blanchedalmond" stroke-width="0.023458119954061135" stroke-dasharray="18.59980826480708 2.7649783805078236" d="M 40 40 Q -8.355092513679622 72.05704218730439 -104.71932821049764 10.356513670652426"/>
    <path stroke="#58C28F" stroke-width="0.06780218414326639" stroke-dasharray="36.24307230008051 2.631740535203945" d="M 40 40 Q -8.595529717765029 72.63750894630644 -106.22206073603144 13.984430914415277"/>
    <path stroke="#58C28F" stroke-width="0.0075586009827736155" stroke-dasharray="52.93808605877104 4.772307603509967" d="M 40 40 Q -8.817615379084508 73.22524159509418 -107.61009611927818 17.657759969338585"/>
    <path stroke="blanchedalmond" stroke-width="0.05835356592470638" stroke-dasharray="9.902838187701544 0.9941940232713259" d="M 40 40 Q -9.021130325903073 73.81966011250105 -108.8820645368942 21.372875703131612"/>
    <path stroke="blanchedalmond" stroke-width="0.0007460569030881223" stroke-dasharray="32.50537937107008 2.126293714401575" d="M 40 40 Q -9.20587371353886 74.42017787921542 -110.03671070961788 25.12611174509636"/>
    <path stroke="blanchedalmond" stroke-width="0.08673637329929618" stroke-dasharray="32.92376346874893 2.4619030948131386" d="M 40 40 Q -9.371663222572622 75.0262022567029 -111.07289514107889 28.91376410439315"/>
    <path stroke="#58C28F" stroke-width="0.000649337267307446" stroke-dasharray="14.544471168574027 4.877502105134563" d="M 40 40 Q -9.518335238774949 75.63713517206915 -111.98959524234343 32.73209482543221"/>
    <path stroke="blanchedalmond" stroke-width="0.07740820694895129" stroke-dasharray="50.980461063289916 1.8329402420256984" d="M 40 40 Q -9.645745014573773 76.2523737082855 -112.78590634108609 36.57733567678443"/>
    <path stroke="#58C28F" stroke-width="0.040197338246261934" stroke-dasharray="32.7218599508749 1.9182773877500687" d="M 40 40 Q -9.753766811902757 76.87131069919539 -113.46104257439222 40.445691869971185"/>
    <path stroke="#58C28F" stroke-width="0.011714737089965609" stroke-dasharray="32.604595253781355 3.7850509129734804" d="M 40 40 Q -9.842294026289558 77.49333532871393 -114.01433766430974 44.333345804461985"/>
    <path stroke="blanchedalmond" stroke-width="0.07660706128520144" stroke-dasharray="23.3379999094295 1.4907953365294249" d="M 40 40 Q -9.911239292061602 78.11783373362971 -114.445245575385 48.23646083518571"/>
    <path stroke="#58C28F" stroke-width="0.02997698591142713" stroke-dasharray="40.42899693797697 0.9847776077764809" d="M 40 40 Q -9.960534568565432 78.74418960941374 -114.75334105353394 52.15118505883586"/>
    <path stroke="#58C28F" stroke-width="0.012891208689832446" stroke-dasharray="18.90840016733714 2.8895744493435855" d="M 40 40 Q -9.990131207314633 79.37178481843743 -114.93832004571645 56.07365511523397"/>
    <path stroke="#58C28F" stroke-width="0.05012189770615662" stroke-dasharray="28.627058897650766 0.9686234800525663" d="M 40 40 Q -10 80 -115 60.00000000000004"/>
    <path stroke="blanchedalmond" stroke-width="0.08172790909117211" stroke-dasharray="25.26858006277433 3.4654334934919606" d="M 40 40 Q -9.990131207314633 80.62821518156257 -114.93832004571645 63.92634488476605"/>
    <path stroke="blanchedalmond" stroke-width="0.010008635168678566" stroke-dasharray="25.1246484432041 3.175324156189929" d="M 40 40 Q -9.960534568565432 81.25581039058626 -114.75334105353394 67.84881494116416"/>
    <path stroke="#58C28F" stroke-width="0.030446506191822445" stroke-dasharray="55.290346627878904 0.6713942165254909" d="M 40 40 Q -9.911239292061602 81.88216626637029 -114.445245575385 71.76353916481432"/>
    <path stroke="#58C28F" stroke-width="0.03269810852808199" stroke-dasharray="52.150637031352524 0.2553454766520445" d="M 40 40 Q -9.842294026289558 82.50666467128609 -114.01433766430974 75.66665419553803"/>
    <path stroke="blanchedalmond" stroke-width="0.09145371839597291" stroke-dasharray="12.3555136384724 4.201253693780832" d="M 40 40 Q -9.753766811902754 83.12868930080462 -113.46104257439221 79.5543081300289"/>
    <path stroke="blanchedalmond" stroke-width="0.06804308786327778" stroke-dasharray="6.70745807329611 4.791307972318169" d="M 40 40 Q -9.645745014573773 83.7476262917145 -112.78590634108608 83.4226643232156"/>
    <path stroke="#58C28F" stroke-width="0.06499407384891143" stroke-dasharray="10.455645299319457 2.1332621746127636" d="M 40 40 Q -9.518335238774949 84.36286482793085 -111.98959524234343 87.26790517456782"/>
    <path stroke="blanchedalmond" stroke-width="0.043836744584565615" stroke-dasharray="51.65342005821042 3.17087963641238" d="M 40 40 Q -9.371663222572622 84.9737977432971 -111.07289514107889 91.08623589560688"/>
    <path stroke="blanchedalmond" stroke-width="0.09475056155686794" stroke-dasharray="45.21517949634971 1.281927260609366" d="M 40 40 Q -9.20587371353886 85.57982212078458 -110.03671070961788 94.87388825490366"/>
    <path stroke="blanchedalmond" stroke-width="0.052023034618214184" stroke-dasharray="45.38459192052639 2.0392606338040316" d="M 40 40 Q -9.02113032590307 86.18033988749896 -108.88206453689419 98.62712429686846"/>
    <path stroke="blanchedalmond" stroke-width="0.0707956773063155" stroke-dasharray="53.028185439817456 2.617908144574656" d="M 40 40 Q -8.817615379084508 86.77475840490582 -107.61009611927818 102.34224003066143"/>
    <path stroke="blanchedalmond" stroke-width="0.061075341637364035" stroke-dasharray="47.63003840296899 4.299214732953763" d="M 40 40 Q -8.595529717765025 87.36249105369356 -106.22206073603141 106.01556908558479"/>
    <path stroke="blanchedalmond" stroke-width="0.06641976094281636" stroke-dasharray="13.713852141631918 0.18160676075692853" d="M 40 40 Q -8.355092513679622 87.94295781269561 -104.71932821049762 109.6434863293476"/>
    <path stroke="blanchedalmond" stroke-width="0.057545300581419094" stroke-dasharray="47.65942903872178 1.0299331824663955" d="M 40 40 Q -8.09654104932039 88.51558583130145 -103.10338155825244 113.22241144563408"/>
    <path stroke="#58C28F" stroke-width="0.06357612980510892" stroke-dasharray="32.85371979051626 1.7099472919313283" d="M 40 40 Q -7.820130483767354 89.07980999479093 -101.37581552354595 116.74881246744339"/>
    <path stroke="blanchedalmond" stroke-width="0.07621846159526416" stroke-dasharray="47.32393511839068 0.786679193663367" d="M 40 40 Q -7.5261336008772695 89.6350734820343 -99.53833500548294 120.21920926271443"/>
    <path stroke="#58C28F" stroke-width="0.03136269302690898" stroke-dasharray="8.350725769500752 0.2812788977556282" d="M 40 40 Q -7.2148405400788675 90.18082831500743 -97.59275337549293 123.63017696879646"/>
    <path stroke="blanchedalmond" stroke-width="0.0030682052375528464" stroke-dasharray="46.311715853777265 1.2497947218977838" d="M 40 40 Q -6.886558510040299 90.71653589957994 -95.54099068775187 126.9783493723746"/>
    <path stroke="blanchedalmond" stroke-width="0.08811806921548448" stroke-dasharray="26.756826197841036 4.203636166553273" d="M 40 40 Q -6.541611485491238 91.2416675570426 -93.38507178432023 130.26042223151632"/>
    <path stroke="#58C28F" stroke-width="0.09246193993825622" stroke-dasharray="8.324298715999575 0.15792276613988684" d="M 40 40 Q -6.1803398874989455 91.75570504584947 -91.1271242968684 133.47315653655917"/>
    <path stroke="#58C28F" stroke-width="0.02732260684641847" stroke-dasharray="8.119908675473443 0.2675891769661334" d="M 40 40 Q -5.803100247513806 92.25814107305953 -88.76937654696128 136.61338170662208"/>
    <path stroke="blanchedalmond" stroke-width="0.041250585796449024" stroke-dasharray="35.58649496025318 3.8997036210668217" d="M 40 40 Q -5.410264855515781 92.7484797949738 -86.31415534697364 139.67799871858625"/>
    <path stroke="#58C28F" stroke-width="0.07243974308063976" stroke-dasharray="6.03633560139186 3.1741979326392706" d="M 40 40 Q -5.0022213926091865 93.22623730647304 -83.76388370380742 142.6639831654565"/>
    <path stroke="#58C28F" stroke-width="0.07587265723639573" stroke-dasharray="56.49458587125594 4.632819442254473" d="M 40 40 Q -4.579372548428232 93.69094211857377 -81.12107842767644 145.5683882410861"/>
    <path stroke="#58C28F" stroke-width="0.08247884702183522" stroke-dasharray="7.051152180496246 0.19978276051361032" d="M 40 40 Q -4.1421356237309475 94.14213562373095 -78.38834764831842 148.38834764831847"/>
    <path stroke="blanchedalmond" stroke-width="0.06074636014634539" stroke-dasharray="54.09058180378996 1.331431534686417" d="M 40 40 Q -3.6909421185737727 94.57937254842824 -75.56838824108608 151.12107842767642"/>
    <path stroke="blanchedalmond" stroke-width="0.004079621425466549" stroke-dasharray="46.07241303882652 1.8048397330833739" d="M 40 40 Q -3.226237306473031 95.0022213926092 -72.66398316545646 153.7638837038075"/>
    <path stroke="#58C28F" stroke-width="0.04895638371762815" stroke-dasharray="35.49342615171839 2.358333032187568" d="M 40 40 Q -2.7484797949737896 95.41026485551579 -69.6779987185862 156.31415534697368"/>
    <path stroke="blanchedalmond" stroke-width="0.04256249311529947" stroke-dasharray="52.49911939106141 0.471674573387268" d="M 40 40 Q -2.25814107305953 95.80310024751381 -66.61338170662206 158.7693765469613"/>
    <path stroke="blanchedalmond" stroke-width="0.034817960217993514" stroke-dasharray="9.252882162733535 2.358803049933143" d="M 40 40 Q -1.7557050458494654 96.18033988749895 -63.47315653655916 161.12712429686843"/>
    <path stroke="#58C28F" stroke-width="0.031759688777170524" stroke-dasharray="50.867485925728865 4.136809535801445" d="M 40 40 Q -1.2416675570426037 96.54161148549125 -60.26042223151627 163.38507178432027"/>
    <path stroke="#58C28F" stroke-width="0.024113814455175454" stroke-dasharray="11.143425319560222 2.759458321481749" d="M 40 40 Q -0.7165358995799274 96.8865585100403 -56.97834937237454 165.5409906877519"/>
    <path stroke="#58C28F" stroke-width="0.05817752937535168" stroke-dasharray="32.98025026168193 0.26673724333223825" d="M 40 40 Q -0.18082831500742103 97.21484054007888 -53.630176968796384 167.59275337549298"/>
    <path stroke="blanchedalmond" stroke-width="0.05605079959758941" stroke-dasharray="44.53066841706988 3.7436788895732507" d="M 40 40 Q 0.364926517965694 97.52613360087727 -50.21920926271441 169.53833500548296"/>
    <path stroke="#58C28F" stroke-width="0.05615773965667582" stroke-dasharray="36.498458344244305 4.630566353962078" d="M 40 40 Q 0.9201900052090615 97.82013048376736 -46.748812467443365 171.37581552354595"/>
    <path stroke="#58C28F" stroke-width="0.02879914498136253" stroke-dasharray="49.17634256927423 4.436753877153413" d="M 40 40 Q 1.4844141686985566 98.0965410493204 -43.22241144563402 173.10338155825247"/>
    <path stroke="#58C28F" stroke-width="0.004639698042165849" stroke-dasharray="32.42470772646081 1.5424728802013257" d="M 40 40 Q 2.0570421873043943 98.35509251367962 -39.64348632934754 174.71932821049765"/>
    <path stroke="#58C28F" stroke-width="0.010640915896165521" stroke-dasharray="40.26528891894845 0.45385753102822557" d="M 40 40 Q 2.6375089463064434 98.59552971776503 -36.01556908558472 176.22206073603144"/>
    <path stroke="blanchedalmond" stroke-width="0.061162222180682284" stroke-dasharray="30.35080586485236 0.797544092696682" d="M 40 40 Q 3.2252415950941726 98.81761537908451 -32.34224003066142 177.61009611927818"/>
    <path stroke="#58C28F" stroke-width="0.09065679984322109" stroke-dasharray="47.451919195979585 0.2813859228127663" d="M 40 40 Q 3.819660112501049 99.02113032590307 -28.627124296868445 178.88206453689418"/>
    <path stroke="blanchedalmond" stroke-width="0.04778086690722369" stroke-dasharray="38.1168859731789 1.8366061804017577" d="M 40 40 Q 4.420177879215426 99.20587371353886 -24.87388825490359 180.0367107096179"/>
    <path stroke="blanchedalmond" stroke-width="0.08791031821273204" stroke-dasharray="14.667034418128875 2.25751914153217" d="M 40 40 Q 5.026202256702911 99.37166322257262 -21.086235895606805 181.0728951410789"/>
    <path stroke="#58C28F" stroke-width="0.016205771957440277" stroke-dasharray="19.600552383439393 3.114092640611167" d="M 40 40 Q 5.6371351720691525 99.51833523877495 -17.267905174567797 181.98959524234343"/>
    <path stroke="blanchedalmond" stroke-width="0.09910801245830586" stroke-dasharray="12.282188848902438 0.781514010756649" d="M 40 40 Q 6.252373708285507 99.64574501457378 -13.422664323215578 182.7859063410861"/>
    <path stroke="blanchedalmond" stroke-width="0.08232285144803556" stroke-dasharray="42.41718429933179 3.4718164239404925" d="M 40 40 Q 6.871310699195379 99.75376681190275 -9.554308130028879 183.4610425743922"/>
    <path stroke="blanchedalmond" stroke-width="0.05841727147841683" stroke-dasharray="36.36498613422212 2.75750362789172" d="M 40 40 Q 7.4933353287139255 99.84229402628955 -5.666654195537966 184.01433766430972"/>
    <path stroke="blanchedalmond" stroke-width="0.023028245584188825" stroke-dasharray="26.832143648652863 1.1992102000163383" d="M 40 40 Q 8.11783373362972 99.9112392920616 -1.7635391648142456 184.445245575385"/>
    <path stroke="blanchedalmond" stroke-width="0.05328799033208367" stroke-dasharray="30.983413802644158 2.523266439160614" d="M 40 40 Q 8.744189609413736 99.96053456856544 2.151185058835849 184.75334105353394"/>
    <path stroke="#58C28F" stroke-width="0.04537629228271076" stroke-dasharray="32.714727769030084 4.197649279928995" d="M 40 40 Q 9.371784818437433 99.99013120731463 6.073655115233963 184.93832004571647"/>
    <path stroke="blanchedalmond" stroke-width="0.06716873581287798" stroke-dasharray="59.73332482866209 4.447062168635593" d="M 40 40 Q 9.999999999999996 100 9.999999999999977 185"/>
    <path stroke="#58C28F" stroke-width="0.0019225027773204116" stroke-dasharray="49.26966770468064 0.6455399637021976" d="M 40 40 Q 10.628215181562576 99.99013120731463 13.926344884766102 184.93832004571644"/>
    <path stroke="#58C28F" stroke-width="0.02638797368749934" stroke-dasharray="30.217600635682796 0.5365766069227365" d="M 40 40 Q 11.255810390586275 99.96053456856544 17.848814941164214 184.75334105353394"/>
    <path stroke="blanchedalmond" stroke-width="0.07777750815209351" stroke-dasharray="36.81306339815839 3.9070706800785695" d="M 40 40 Q 11.88216626637029 99.9112392920616 21.76353916481431 184.445245575385"/>
    <path stroke="#58C28F" stroke-width="0.08922666525582433" stroke-dasharray="36.007056131876055 3.470282531067511" d="M 40 40 Q 12.506664671286085 99.84229402628955 25.66665419553803 184.01433766430972"/>
    <path stroke="blanchedalmond" stroke-width="0.08853013248405796" stroke-dasharray="50.988835388660064 3.537880153054454" d="M 40 40 Q 13.128689300804613 99.75376681190275 29.554308130028833 183.46104257439222"/>
    <path stroke="blanchedalmond" stroke-width="0.01980448273049482" stroke-dasharray="11.387969460999901 3.4007257013245566" d="M 40 40 Q 13.747626291714504 99.64574501457378 33.42266432321564 182.78590634108608"/>
    <path stroke="blanchedalmond" stroke-width="0.09908897169259169" stroke-dasharray="49.506265260380346 1.2882097535853168" d="M 40 40 Q 14.362864827930858 99.51833523877494 37.26790517456786 181.9895952423434"/>
    <path stroke="blanchedalmond" stroke-width="0.024201349739644485" stroke-dasharray="41.777094749623714 0.7419214941766414" d="M 40 40 Q 14.973797743297098 99.37166322257262 41.08623589560686 181.0728951410789"/>
    <path stroke="#58C28F" stroke-width="0.06880946971761782" stroke-dasharray="11.739879769456959 4.277684310985097" d="M 40 40 Q 15.579822120784584 99.20587371353886 44.873888254903655 180.03671070961786"/>
    <path stroke="blanchedalmond" stroke-width="0.04015525671670361" stroke-dasharray="28.437324643460506 2.727723533528412" d="M 40 40 Q 16.180339887498945 99.02113032590307 48.6271242968684 178.8820645368942"/>
    <path stroke="blanchedalmond" stroke-width="0.08460654144730706" stroke-dasharray="48.95355514392369 4.501506085121666" d="M 40 40 Q 16.77475840490584 98.81761537908451 52.342240030661486 177.61009611927818"/>
    <path stroke="#58C28F" stroke-width="0.09265620757227154" stroke-dasharray="40.4426086914591 3.39484922341844" d="M 40 40 Q 17.362491053693567 98.59552971776503 56.01556908558478 176.2220607360314"/>
    <path stroke="#58C28F" stroke-width="0.05655038595106581" stroke-dasharray="59.447037773386775 0.11197162096219024" d="M 40 40 Q 17.942957812695614 98.35509251367962 59.64348632934759 174.71932821049762"/>
    <path stroke="#58C28F" stroke-width="0.03873984976381308" stroke-dasharray="23.05108559387763 1.958915408084116" d="M 40 40 Q 18.51558583130145 98.0965410493204 63.22241144563407 173.10338155825247"/>
    <path stroke="#58C28F" stroke-width="0.06271906808469209" stroke-dasharray="41.280610858405275 0.6008936185662843" d="M 40 40 Q 19.07980999479095 97.82013048376734 66.74881246744343 171.37581552354595"/>
    <path stroke="blanchedalmond" stroke-width="0.07340209845630308" stroke-dasharray="22.536314590743725 0.4407116306911271" d="M 40 40 Q 19.635073482034315 97.52613360087727 70.21920926271446 169.5383350054829"/>
    <path stroke="#58C28F" stroke-width="0.05238592197830721" stroke-dasharray="48.80246334733579 4.0707196328119775" d="M 40 40 Q 20.18082831500743 97.21484054007887 73.63017696879643 167.59275337549292"/>
    <path stroke="blanchedalmond" stroke-width="0.0901480000331085" stroke-dasharray="31.477680245226843 2.4840104546777937" d="M 40 40 Q 20.716535899579934 96.8865585100403 76.9783493723746 165.54099068775187"/>
    <path stroke="#58C28F" stroke-width="0.0042436535994009135" stroke-dasharray="10.658776240306452 4.853149739789521" d="M 40 40 Q 21.24166755704261 96.54161148549125 80.26042223151633 163.38507178432025"/>
    <path stroke="#58C28F" stroke-width="0.03650951537461921" stroke-dasharray="27.645045192471756 1.8049105718368808" d="M 40 40 Q 21.755705045849474 96.18033988749895 83.47315653655922 161.12712429686837"/>
    <path stroke="blanchedalmond" stroke-width="0.0708384399577254" stroke-dasharray="13.040685080612738 4.12905048267538" d="M 40 40 Q 22.25814107305954 95.8031002475138 86.61338170662212 158.76937654696127"/>
    <path stroke="blanchedalmond" stroke-width="0.04566247119922871" stroke-dasharray="19.17495516155556 4.09345225507751" d="M 40 40 Q 22.7484797949738 95.41026485551578 89.67799871858625 156.31415534697362"/>
    <path stroke="blanchedalmond" stroke-width="0.05277410179083895" stroke-dasharray="55.38060673421204 3.703511981388315" d="M 40 40 Q 23.22623730647304 95.00222139260919 92.66398316545649 153.76388370380744"/>
    <path stroke="#58C28F" stroke-width="0.02217701995793346" stroke-dasharray="7.511563796082107 1.5067022556549299" d="M 40 40 Q 23.690942118573773 94.57937254842824 95.56838824108608 151.12107842767642"/>
    <path stroke="#58C28F" stroke-width="0.05281599437315259" stroke-dasharray="6.5423438595507735 0.7008995069927157" d="M 40 40 Q 24.142135623730958 94.14213562373094 98.3883476483185 148.38834764831836"/>
    <path stroke="blanchedalmond" stroke-width="0.04341627294076232" stroke-dasharray="35.242466653567746 2.587825245318686" d="M 40 40 Q 24.57937254842824 93.69094211857376 101.12107842767648 145.56838824108604"/>
    <path stroke="blanchedalmond" stroke-width="0.005695634422809178" stroke-dasharray="10.154503983298227 1.6795126169615142" d="M 40 40 Q 25.002221392609194 93.22623730647302 103.76388370380747 142.66398316545644"/>
    <path stroke="blanchedalmond" stroke-width="0.0025243085804185173" stroke-dasharray="11.937797485866128 2.1356312509028217" d="M 40 40 Q 25.410264855515788 92.74847979497379 106.31415534697366 139.6779987185862"/>
    <path stroke="blanchedalmond" stroke-width="0.007741454492642763" stroke-dasharray="53.29447689545395 1.6045070347537724" d="M 40 40 Q 25.803100247513804 92.25814107305953 108.76937654696128 136.61338170662208"/>
    <path stroke="blanchedalmond" stroke-width="0.004549750930856612" stroke-dasharray="34.600626831198156 1.4747170442081667" d="M 40 40 Q 26.180339887498956 91.75570504584945 111.12712429686847 133.4731565365591"/>
    <path stroke="blanchedalmond" stroke-width="0.0958770823668445" stroke-dasharray="21.968740742944647 3.652294177147991" d="M 40 40 Q 26.54161148549124 91.2416675570426 113.38507178432026 130.2604222315163"/>
    <path stroke="#58C28F" stroke-width="0.08258417861965502" stroke-dasharray="41.58344058081278 2.1022423967393347" d="M 40 40 Q 26.886558510040306 90.71653589957992 115.54099068775191 126.97834937237454"/>
    <path stroke="#58C28F" stroke-width="0.04756166847011063" stroke-dasharray="19.686292736261255 2.023580024398504" d="M 40 40 Q 27.214840540078875 90.18082831500743 117.59275337549298 123.6301769687964"/>
    <path stroke="#58C28F" stroke-width="0.04221877513250541" stroke-dasharray="46.08874626900519 4.39515799707605" d="M 40 40 Q 27.526133600877273 89.6350734820343 119.53833500548295 120.21920926271441"/>
    <path stroke="#58C28F" stroke-width="0.07007846173764319" stroke-dasharray="43.535149017954836 1.7684304429520887" d="M 40 40 Q 27.82013048376736 89.07980999479092 121.37581552354601 116.74881246744327"/>
    <path stroke="blanchedalmond" stroke-width="0.023826676146326775" stroke-dasharray="15.707902603151917 3.299579841390522" d="M 40 40 Q 28.096541049320393 88.51558583130145 123.10338155825247 113.22241144563404"/>
    <path stroke="blanchedalmond" stroke-width="0.05998618151742378" stroke-dasharray="47.90060428394063 4.355724107322218" d="M 40 40 Q 28.355092513679626 87.94295781269561 124.71932821049765 109.64348632934755"/>
    <path stroke="blanchedalmond" stroke-width="0.015785392976644202" stroke-dasharray="30.3734796664817 2.9583438383477523" d="M 40 40 Q 28.59552971776503 87.36249105369356 126.22206073603144 106.01556908558473"/>
    <path stroke="blanchedalmond" stroke-width="0.045742128120047895" stroke-dasharray="23.09278327498606 1.4558333470645528" d="M 40 40 Q 28.817615379084508 86.77475840490582 127.61009611927818 102.34224003066143"/>
    <path stroke="blanchedalmond" stroke-width="0.06950368878028361" stroke-dasharray="33.19971977953104 3.9708924335187055" d="M 40 40 Q 29.021130325903076 86.18033988749893 128.88206453689423 98.62712429686835"/>
    <path stroke="#58C28F" stroke-width="0.0372610436834789" stroke-dasharray="28.948541785376555 3.9769652484492637" d="M 40 40 Q 29.205873713538864 85.57982212078457 130.0367107096179 94.87388825490359"/>
    <path stroke="#58C28F" stroke-width="0.020957480493269343" stroke-dasharray="36.02890717413959 1.6069865346198642" d="M 40 40 Q 29.371663222572625 84.97379774329708 131.0728951410789 91.08623589560682"/>
    <path stroke="#58C28F" stroke-width="0.04175939158550039" stroke-dasharray="18.28709728608876 4.277955544242281" d="M 40 40 Q 29.51833523877495 84.36286482793085 131.98959524234343 87.2679051745678"/>
    <path stroke="#58C28F" stroke-width="0.07808638993891476" stroke-dasharray="40.91847385406861 3.0963821568655496" d="M 40 40 Q 29.645745014573773 83.7476262917145 132.7859063410861 83.42266432321559"/>
    <path stroke="#58C28F" stroke-width="0.03805584185230745" stroke-dasharray="19.122795371793273 2.3639749304348143" d="M 40 40 Q 29.753766811902757 83.12868930080461 133.46104257439225 79.55430813002877"/>
    <path stroke="blanchedalmond" stroke-width="0.048698095295523575" stroke-dasharray="9.908165952573015 4.761055409500854" d="M 40 40 Q 29.842294026289558 82.50666467128607 134.01433766430972 75.66665419553797"/>
    <path stroke="#58C28F" stroke-width="0.040227914115297275" stroke-dasharray="33.79367901172592 1.3663626358751206" d="M 40 40 Q 29.9112392920616 81.88216626637028 134.445245575385 71.76353916481426"/>
    <path stroke="blanchedalmond" stroke-width="0.024927950236713122" stroke-dasharray="58.93206755570631 0.7173865085816569" d="M 40 40 Q 29.960534568565432 81.25581039058626 134.75334105353394 67.84881494116416"/>
    <path stroke="#58C28F" stroke-width="0.06479510238860654" stroke-dasharray="12.425593702738881 0.6124958857785753" d="M 40 40 Q 29.990131207314633 80.62821518156257 134.93832004571647 63.926344884766046"/>
  </g>
</svg>