<svg xmlns="http://www.w3.org/2000/svg" viewBox="-5 -5 10 10">
  <defs>
    <mask id="mask-323">
      <circle r="3" fill="#fff"/>
    </mask>
    <filter id="filter-324">
      <feTurbulence type="fractalNoise" baseFrequency="100"/>
      <feDisplacementMap in="SourceGraphic" scale="3"/>
    </filter>
    <filter id="filter-325">
      <feGaussianBlur stdDeviation=".7"/>
    </filter>
    <mask id="mask-326">
      <circle r=".85" cx="2" cy="2" fill="#fff"/>
    </mask>
    <filter id="filter-327">
      <feTurbulence type="fractalNoise" baseFrequency="100"/>
      <feDisplacementMap in="SourceGraphic" scale="1"/>
    </filter>
    <filter id="filter-328">
      <feGaussianBlur stdDeviation=".2"/>
    </filter>
  </defs>
  <g mask="url(#mask-323)">
    <circle r="3" fill="#EB809C"/>
    <g filter="url(#filter-324)">
      <circle cx="4" cy="4" r="6" fill="black" filter="url(#filter-325)"/>
    </g>
  </g>
  <g transform="rotate(-20)">
    <circle r="0.03815907696770961" fill="#EB809C" cx="-3.068992620281244" cy="-0.6461397181573826"/>
    <circle r="0.007458420080311105" fill="#EB809C" cx="-3.374086683726537" cy="-0.5102523868384888"/>
    <circle r="0.09436914728267513" fill="black" cx="-3.6472862704572275" cy="-0.36216859213101055"/>
    <circle r="0.09138476675430626" fill="black" cx="-3.886008886698201" cy="-0.2032881365844463"/>
    <circle r="0.06187475430840719" fill="#EB809C" cx="-4.087997941662483" cy="-0.035112881136238394"/>
    <circle r="0.09798079894644543" fill="#EB809C" cx="-4.251344078592516" cy="0.14076745163928298"/>
    <circle r="0.014550529968273157" fill="black" cx="-4.374503223476846" cy="0.32269030481810046"/>
    <circle r="0.027571538521154126" fill="#EB809C" cx="-4.456311180831803" cy="0.5089360029003072"/>
    <circle r="0.04673322238798133" fill="#EB809C" cx="-4.495994638577554" cy="0.6977440075128593"/>
    <circle r="0.009604873266618056" fill="black" cx="-4.49317847798193" cy="0.8873295593798048"/>
    <circle r="0.06595694466788261" fill="#EB809C" cx="-4.447889319572786" cy="1.075900549247221"/>
    <circle r="0.09860368768224331" fill="#EB809C" cx="-4.360555271500179" cy="1.2616744582858244"/>
    <circle r="0.07146132588436942" fill="black" cx="-4.232001882727055" cy="1.4428952078374735"/>
    <circle r="0.09026543987208269" fill="black" cx="-4.063444339302007" cy="1.6178497592287229"/>
    <circle r="0.09837895970954279" fill="#EB809C" cx="-3.8564759774809683" cy="1.784884306737162"/>
    <circle r="0.003354350012874108" fill="black" cx="-3.613053222280699" cy="1.9424199106420834"/>
    <circle r="0.07215194882475734" fill="black" cx="-3.3354770938365097" cy="2.0889674225838135"/>
    <circle r="0.02883978251684174" fill="black" cx="-3.0263714563804287" cy="2.2231415621456545"/>
    <circle r="0.04320152726001272" fill="black" cx="-2.6886582154472918" cy="2.3436740115957018"/>
    <circle r="0.0645964753867782" fill="#EB809C" cx="-2.325529697763945" cy="2.449425405006908"/>
    <circle r="0.05225746043126376" fill="#EB809C" cx="-1.940418474908208" cy="2.539396098424968"/>
    <circle r="0.004891101454429326" fill="black" cx="-1.53696491598771" cy="2.6127356192760565"/>
    <circle r="0.06823456354284074" fill="#EB809C" cx="-1.1189827760557745" cy="2.668750705691315"/>
    <circle r="0.01263462527505149" fill="black" cx="-0.6904231455492554" cy="2.7069118597541824"/>
    <circle r="0.08258595474447569" fill="black" cx="-0.25533710152610756" cy="2.7268583527241863"/>
    <circle r="0.03824506059104855" fill="#EB809C" cx="0.18216258624788717" cy="2.728401634923976"/>
    <circle r="0.040783484528534364" fill="#EB809C" cx="0.6179403323796087" cy="2.7115271180566887"/>
    <circle r="0.0648213350007125" fill="#EB809C" cx="1.04787682860001" cy="2.676394313105812"/>
    <circle r="0.030046427010755786" fill="black" cx="1.467907982651599" cy="2.6233353225140092"/>
    <circle r="0.0031590200332103345" fill="#EB809C" cx="1.8740633352314369" cy="2.5528517008939975"/>
    <circle r="0.0401146240400012" fill="#EB809C" cx="2.26250359184308" cy="2.465609713946467"/>
    <circle r="0.09998755781887092" fill="black" cx="2.6295569147772957" cy="2.3624340404014132"/>
    <circle r="0.0015737622586528136" fill="#EB809C" cx="2.971753632161754" cy="2.2442999765170115"/>
    <circle r="0.05324669361123792" fill="#EB809C" cx="3.2858590359828517" cy="2.112324216825129"/>
    <circle r="0.021352725114900634" fill="black" cx="3.568903959047457" cy="1.967754298271004"/>
    <circle r="0.061843228970880494" fill="#EB809C" cx="3.8182128418474512" cy="1.8119568075292445"/>
    <circle r="0.046575056500601036" fill="black" cx="4.031429024017358" cy="1.6464044629697212"/>
    <circle r="0.06571761558369497" fill="black" cx="4.206537021310675" cy="1.4726621933845918"/>
    <circle r="0.07377208786405592" fill="black" cx="4.341881577515654" cy="1.2923723450711087"/>
    <circle r="0.0844598696875804" fill="black" cx="4.436183311217126" cy="1.1072391571042917"/>
    <circle r="0.03608237871688671" fill="#EB809C" cx="4.488550809499056" cy="0.919012651551206"/>
    <circle r="0.021533695779039005" fill="#EB809C" cx="4.4984890542688145" cy="0.7294720909089839"/>
    <circle r="0.026827854428074574" fill="#EB809C" cx="4.465904101551008" cy="0.5404091591396999"/>
    <circle r="0.07284076963948008" fill="#EB809C" cx="4.3911039695185865" cy="0.3536110252879404"/>
    <circle r="0.020460473578021957" fill="#EB809C" cx="4.27479572686687" cy="0.1708434497768726"/>
    <circle r="0.08899162630668572" fill="#EB809C" cx="4.11807880905342" cy="-0.006165906924835019"/>
    <circle r="0.0763633723530406" fill="black" cx="3.9224346255838345" cy="-0.17574381548587584"/>
    <circle r="0.0370574273992518" fill="#EB809C" cx="3.6897125565834417" cy="-0.33628729436994315"/>
    <circle r="0.06954641615706822" fill="black" cx="3.422112471026118" cy="-0.48627876245689583"/>
    <circle r="0.06831866220944606" fill="#EB809C" cx="3.1221639318714676" cy="-0.6243003843931336"/>
  </g>
  <g mask="url(#mask-326)">
    <circle r="8" fill="black"/>
    <g filter="url(#filter-327)">
      <circle cx="1" cy="1" r="1.5" fill="#EB809C" filter="url(#filter-328)"/>
    </g>
  </g>
</svg>